# Blender v2.76 (sub 0) OBJ File: 'untitled.blend'
# www.blender.org
o Star
v -40.000000 0.000000 0.000000
v -20.000000 -10.000000 -0.000002
v -20.000000 10.000000 0.000002
v -20.000000 -20.000000 -0.000003
v -10.000000 -20.000000 -0.000003
v 0.000000 -40.000000 -0.000007
v 10.000000 -20.000000 -0.000003
v 20.000000 -20.000000 -0.000003
v 20.000000 -10.000000 -0.000002
v 40.000000 0.000000 0.000000
v 20.000000 10.000000 0.000002
v 20.000000 20.000000 0.000003
v 10.000000 20.000000 0.000003
v 0.000000 40.000000 0.000007
v -10.000000 20.000000 0.000003
v -20.000000 20.000000 0.000003
vt 1.000000 0.000000
vt 0.000000 1.000000
vn 0.000000 -0.000000 1.000000
s off
f 1/1/1 2/1/1 3/2/1
f 2/1/1 4/1/1 5/2/1
f 6/1/1 7/1/1 5/2/1
f 7/1/1 8/1/1 9/2/1
f 9/1/1 10/1/1 11/2/1
f 12/1/1 13/1/1 11/2/1
f 13/1/1 14/1/1 15/2/1
f 16/1/1 3/1/1 15/2/1
